<?xml version="1.0" encoding="UTF-8"?>
<svg id="_レイヤー_2" data-name="レイヤー 2" xmlns="http://www.w3.org/2000/svg" width="338.49" height="131" viewBox="0 0 338.49 131">
  <defs>
    <style>
      .cls-1 {
        fill: #211815;
      }

      .cls-2 {
        fill: #f5f19b;
      }

      .cls-3 {
        fill: #e0a99c;
      }

      .cls-4 {
        fill: #ecbb6e;
      }

      .cls-5 {
        fill: #93c9ce;
      }

      .cls-6 {
        fill: #5c948d;
      }

      .cls-7 {
        fill: #fffba1;
      }

      .cls-8, .cls-9 {
        fill: #fff;
      }

      .cls-10 {
        fill: #d3f2c9;
      }

      .cls-11 {
        fill: #de8a4c;
      }

      .cls-12 {
        fill: #ceeaeb;
      }

      .cls-13 {
        fill: #f2d496;
      }

      .cls-9 {
        stroke: #ceeaeb;
        stroke-miterlimit: 10;
        stroke-width: 2.83px;
      }
    </style>
  </defs>
  <g id="_レイヤー_1-2" data-name="レイヤー 1">
    <g>
      <circle class="cls-12" cx="30.25" cy="30" r="30"/>
      <path class="cls-9" d="M328.61,7.64H89.23c-4.68,0-8.47,3.79-8.47,8.47v12.66s-9.69,9.69-9.69,9.69h9.69v.5c0,4.68,3.79,8.47,8.47,8.47h239.38c4.68,0,8.47-3.79,8.47-8.47v-22.85c0-4.68-3.79-8.47-8.47-8.47Z"/>
      <g>
        <path d="M98.6,31.59c3.67.01,5.42-.84,5.42-2.29,0-.87-.81-1.62-2.04-1.62-1.65,0-3.41.86-4.35,2.21l-1.21-.69c.53-1.52.98-3.15,1.32-4.71-.93.04-1.8.06-2.67.06l-.13-1.53c1.06.03,2.07.03,3.12-.03.17-.87.3-1.7.39-2.45l1.58.24c-.09.62-.24,1.33-.41,2.1,1.26-.12,2.62-.31,4.25-.6l.19,1.54c-1.81.27-3.38.45-4.78.55-.27,1.08-.56,2.15-.79,2.99,1.09-.71,2.46-1.08,3.64-1.08,2.04,0,3.46,1.21,3.46,3.03,0,2.28-1.8,3.58-6.17,3.75l-.81-1.47Z"/>
        <path d="M110.97,31.06c0-1.12,1-1.86,2.59-1.86.24,0,.5.01.76.04-.01-.2-.01-.39-.03-.57-.06-1.03-.18-3.3-.2-3.97-.01-.46-.01-.83-.01-1.37l1.44.06c-.03.57-.04,1.29-.04,1.93.96-.08,1.89-.27,2.85-.55l.15,1.35c-1.11.32-2.07.44-2.99.48.02.69.04,1.46.09,2.05l.04.79c1.09.29,2.28.79,3.25,1.41l-.66,1.29c-.87-.63-1.74-1.08-2.52-1.35v.17c0,1.33-.85,2.01-2.26,2.01-1.5,0-2.47-.68-2.47-1.92ZM113.4,31.69c.55,0,.99-.23.99-.83,0-.08,0-.2-.02-.34-.36-.08-.66-.09-.87-.09-.66,0-1.14.24-1.14.65,0,.43.48.62,1.04.62Z"/>
        <path d="M127.91,31.17c2.99-.31,4.59-1.38,4.59-2.88,0-.95-.64-1.84-1.92-1.84-.67,0-1.5.18-2.46.38-.94.2-2.23.5-3.21.73l-.4-1.41c.96-.21,2.08-.44,3.28-.68,1.05-.21,2.05-.39,2.85-.39,2.17,0,3.42,1.37,3.42,3.13,0,2.31-1.8,3.76-5.28,4.29l-.87-1.33Z"/>
        <path d="M139.2,29.65c0-1.32,1-2.5,2.88-3.69-.61-1.41-1.3-3.21-1.71-4.98l1.58-.38c.27,1.41.88,3.25,1.44,4.62,1.14-.6,2.5-1.21,4.02-1.84l.69,1.47c-3.94,1.35-7.35,3.1-7.35,4.63,0,.94.79,1.51,2.99,1.51,1.32,0,2.92-.1,4.67-.43l.27,1.6c-1.79.3-3.62.36-4.79.36-3.46,0-4.68-1.16-4.68-2.88Z"/>
        <path d="M151.77,25.03l.96-1.11c.71.47,1.44,1.11,2.22,1.95l-.99,1.17c-.66-.78-1.48-1.54-2.19-2.01ZM151.8,32.23c.88-1.23,1.71-2.79,2.32-4.4l1.1.96c-.6,1.68-1.4,3.27-2.24,4.54l-1.18-1.11ZM152.19,21.64l.96-1.07c.81.56,1.53,1.2,2.16,1.91l-.99,1.17c-.75-.85-1.41-1.5-2.13-2.01ZM154.67,31.9c.39-.06.89-.12,1.46-.24v-4.88h1.37v1.32h2.26v1.25h-2.26v2.01c.6-.12,1.47-.33,2.21-.56l.08,1.2c-1.17.45-3.04.95-4.62,1.25l-.48-1.35ZM156.02,20.85h7.53v5.46h-7.53v-5.46ZM162.17,23.01v-1.05h-4.77v1.05h4.77ZM162.17,25.2v-1.11h-4.77v1.11h4.77ZM160.17,31.93v-5.14h1.37v1.63c.75-.29,1.54-.69,2.14-1.14l1,1.08c-1,.55-2.02.99-3.15,1.29v1.67c0,.42.18.51.97.51,1.02,0,1.07-.08,1.16-1.96l1.35.36c-.15,2.69-.34,2.92-2.61,2.92-1.84,0-2.24-.21-2.24-1.21Z"/>
        <path d="M167.06,27.57h2.22v-2.08h-2.99v-1.26h2.99v-1.75c-.88.12-1.88.25-2.24.28l-.57-1.21c2.17-.21,4.12-.57,5.62-1.02l.85,1.2c-.57.17-1.25.31-2.29.51v2h2.89v1.26h-2.89v2.08h2.19v5.59h-1.36v-.71h-3.06v.84h-1.36v-5.73ZM171.48,31.21v-2.44h-3.06v2.44h3.06ZM174.14,31.87v-11.16h1.43v10.42c0,.48.18.58,1.08.58.68,0,.93-.09,1.05-.39.09-.29.19-1.25.22-2.49l1.44.45c-.07,2.13-.22,3-.58,3.39-.34.36-.99.51-2.31.51-1.79,0-2.33-.3-2.33-1.32Z"/>
        <path d="M186.42,28.9h-3.42v1.18h-1.48v-7.03h4.9v-2.67h1.53v2.67h5v6.96h-1.49v-1.11h-3.51v4.54h-1.53v-4.54ZM186.42,27.61v-3.27h-3.42v3.27h3.42ZM191.46,27.61v-3.27h-3.51v3.27h3.51Z"/>
        <path d="M199.22,26.65c-1.08,0-1.86,1.06-2.07,2.83l-1.42-.23c.22-2.62,1.72-4.08,3.49-4.08,2.48,0,3.15,2.91,4.95,2.91,1.08,0,1.92-.94,2.07-2.82l1.41.22c-.22,2.61-1.59,4.08-3.45,4.08-2.52,0-3.24-2.92-4.98-2.92Z"/>
        <path d="M213.68,26.65c-1.08,0-1.86,1.06-2.07,2.83l-1.42-.23c.22-2.62,1.72-4.08,3.49-4.08,2.48,0,3.15,2.91,4.95,2.91,1.08,0,1.92-.94,2.07-2.82l1.41.22c-.22,2.61-1.59,4.08-3.45,4.08-2.52,0-3.24-2.92-4.98-2.92Z"/>
        <path d="M229.4,31.38c0-.66.49-1.23,1.21-1.23s1.21.57,1.21,1.23-.5,1.21-1.21,1.21-1.21-.55-1.21-1.21ZM229.73,21.69h1.76l-.09,7.33h-1.56l-.11-7.33Z"/>
      </g>
      <path class="cls-9" d="M9.89,74.51h239.38c4.68,0,8.47,3.79,8.47,8.47v12.66s9.69,9.69,9.69,9.69h-9.69s0,.5,0,.5c0,4.68-3.79,8.47-8.47,8.47H9.89c-4.68,0-8.47-3.79-8.47-8.47v-22.85c0-4.68,3.79-8.47,8.47-8.47Z"/>
      <g>
        <path d="M26.39,97.46c0-1.09,1.11-2.11,2.86-2.11.44,0,.9.03,1.32.09l-.04-1.16c0-.08-.01-.15-.01-.24-.36.02-.68.03-.96.03-1.71,0-2.53-.38-2.53-1.2,0-.46.29-1.08.94-1.84l.99.57c-.36.36-.5.6-.5.76,0,.36.5.42,1.23.42.19,0,.45-.01.75-.03l-.09-2c-.56.01-1.1.03-1.65.03-1.04,0-1.95-.01-2.85-.07l-.06-1.49c1.16.08,2.27.11,3.32.11.42,0,.82,0,1.23-.02,0-.67-.01-1.39,0-2l1.61.08c-.04.56-.08,1.19-.08,1.83,1.29-.09,2.55-.27,3.79-.52l.18,1.47c-1.21.22-2.58.39-3.99.5l.05,1.92c.97-.14,2.1-.38,3.18-.75l.39,1.44c-1.14.32-2.4.53-3.51.65,0,.13.01.25.01.38.03.48.06.99.08,1.45,1.32.41,2.75,1.07,4.05,1.92l-.85,1.32c-1.17-.79-2.22-1.37-3.12-1.72v.08c0,1.68-1.09,2.35-2.7,2.35-1.81,0-3.03-.76-3.03-2.24ZM29.24,98.29c.85,0,1.37-.29,1.37-1.09v-.36c-.48-.1-.95-.15-1.21-.15-.84,0-1.47.31-1.47.81s.48.79,1.32.79Z"/>
        <path d="M40.63,96.52c0-1.32,1-2.5,2.88-3.69-.61-1.41-1.3-3.21-1.71-4.98l1.58-.38c.27,1.41.88,3.25,1.44,4.62,1.14-.6,2.5-1.21,4.02-1.84l.69,1.47c-3.94,1.35-7.35,3.1-7.35,4.63,0,.94.79,1.51,2.99,1.51,1.32,0,2.92-.1,4.67-.43l.27,1.6c-1.79.3-3.62.36-4.79.36-3.46,0-4.68-1.16-4.68-2.88Z"/>
        <path d="M58.18,97.63c-.87.81-1.8,1.16-2.67,1.16-1.09,0-1.86-.95-1.86-2.54s.81-3.34,2.21-4.57c-.14-.79-.23-1.65-.3-2.59l1.53-.36c0,.75.03,1.44.09,2.1.81-.45,1.74-.73,2.7-.87.08-.79.1-1.62.08-2.47l1.62.08c-.03.78-.09,1.56-.2,2.34,2.5.15,4.41,1.89,4.41,4.44s-1.47,4.41-4.62,5.45l-1.28-1.08c2.8-.81,4.3-2.26,4.3-4.3,0-1.7-1.17-3.08-2.97-3.18-.3,1.96-1,3.9-1.98,5.32.22.32.48.63.75.92l-1.12,1.16c-.24-.33-.46-.66-.69-.98ZM55.84,97.24c.45,0,1.02-.27,1.59-.87-.54-.99-.93-1.98-1.23-3.1-.71.85-1.11,1.83-1.11,2.73,0,.72.2,1.25.75,1.25ZM58.4,95.2c.57-1.05,1.12-2.59,1.33-3.87-.86.15-1.67.47-2.34.93.22,1.09.55,2.05,1,2.94Z"/>
        <path d="M72.31,95.2c0-1.67,1.05-3.22,3.02-4.56-2.88.27-4.68.42-6.81.58l-.19-1.58c3.12-.12,7.92-.41,11.43-.97l.3,1.53c-2.08.29-2.79.51-4,1.47-1.38,1.08-2.21,2.19-2.21,3.55,0,1.71,1.37,2.59,4.04,2.94l-.67,1.46c-2.99-.42-4.89-1.86-4.89-4.42Z"/>
        <path d="M82.43,95.72c0-1,.49-1.73,1.48-2.24.84-.43,1.75-.64,3.15-.67.4-.97.84-2.14,1.17-3.13-.98.2-2.4.38-3.38.42l-.38-1.44c1.92-.07,3.24-.28,4.5-.58l1.08.63c-.55,1.68-1.06,3-1.57,4.18,1.02.1,2.05.31,3.06.62.13-.83.21-1.71.24-2.62l1.46.38c-.04.96-.14,1.88-.29,2.73.97.39,1.84.84,2.58,1.33l-.84,1.26c-.62-.45-1.32-.85-2.07-1.18-.51,1.72-1.46,3.24-3.22,4.53l-1.47-.81c1.82-1.11,2.78-2.55,3.3-4.26-1.12-.38-2.26-.62-3.31-.71-1.27,2.64-2.21,3.87-3.55,3.87-1.26,0-1.93-1.08-1.93-2.29ZM84.53,96.55c.52,0,1.21-.97,1.93-2.44-.6.04-1.15.18-1.59.39-.62.29-.97.69-.97,1.2,0,.45.21.85.63.85Z"/>
        <path d="M100.16,97.52c0-1.05.95-1.82,2.23-1.82s2.39.72,3.12,2.01c.72-.48,1.19-1.19,1.19-2.03,0-1.05-1.07-1.91-2.79-1.91-1.1,0-2.42.36-3.42.99-.69.43-1.2.86-1.96,1.63l-1.04-1.12c1.65-1.27,4.05-3.39,6.21-5.82-1.21.21-2.73.34-3.99.41l-.27-1.44c1.72-.03,3.61-.15,5.77-.55l.85,1.05c-1.44,1.54-2.56,2.61-3.91,3.83.69-.21,1.33-.3,1.93-.3,2.52,0,4.16,1.33,4.16,3.2,0,2.4-2.4,4.05-5.24,4.05-1.54,0-2.85-.83-2.85-2.17ZM103.16,98.38c.39,0,.75-.04,1.11-.13-.46-.81-1.11-1.26-1.8-1.26-.51,0-.81.25-.81.58,0,.52.66.81,1.5.81Z"/>
        <path d="M112.93,96.52c0-1.32,1-2.5,2.88-3.69-.61-1.41-1.3-3.21-1.71-4.98l1.58-.38c.27,1.41.88,3.25,1.44,4.62,1.14-.6,2.5-1.21,4.02-1.84l.69,1.47c-3.94,1.35-7.35,3.1-7.35,4.63,0,.94.79,1.51,2.99,1.51,1.32,0,2.92-.1,4.67-.43l.27,1.6c-1.79.3-3.62.36-4.79.36-3.46,0-4.68-1.16-4.68-2.88Z"/>
        <path d="M127.48,96.35c0-.96.5-1.79,1.31-2.58l1.27.74c-.76.58-1.05,1.24-1.05,1.77,0,.97,1.02,1.44,3.39,1.44,1.61,0,3.41-.21,4.75-.56l.38,1.59c-1.65.36-3.12.5-4.9.5-3.39,0-5.15-.97-5.15-2.89ZM130.94,91.72c.53-.44.99-.79,1.54-1.17-1.57.08-3.21.1-4.23.08l-.09-1.52c2.64.09,5.54.03,7.71-.22l.3,1.48c-.6.04-1.04.09-1.53.29-.9.36-1.48.84-2.38,1.65l-1.32-.58Z"/>
        <path d="M140.44,98.9c2.04-4.32,3.55-7.62,5.26-11.5l1.54.58c-1.04,2.04-1.91,3.81-2.81,5.71.79-.69,1.65-1.02,2.33-1.02,1.04,0,1.38.83,1.38,2.64,0,1.93.24,2.58,1.02,2.58,1.05,0,2.05-1.28,2.95-3.99l1.23,1.19c-1.04,2.8-2.36,4.3-4.17,4.3s-2.52-1.23-2.52-3.57c0-1.27-.12-1.6-.58-1.6-.53,0-1.37.67-2.01,1.47-.76.93-1.15,1.65-2.2,4l-1.42-.79Z"/>
        <path d="M155.05,96.35c1.35-2.04,2.19-3.66,2.8-5.29-.99.09-1.93.15-2.67.17l-.19-1.42c1-.02,2.19-.08,3.38-.2.22-.76.45-1.56.66-2.43l1.53.38c-.2.66-.38,1.27-.57,1.86.89-.12,1.73-.27,2.42-.45l.27,1.42c-.78.18-1.95.36-3.18.51-.73,2.04-1.6,3.92-3.03,6.27l-1.41-.81ZM158.12,97.66c0-1.14,1.06-2.05,2.67-2.05.36,0,.75.03,1.14.09-.03-.5-.06-1.08-.06-1.37,0-.42.06-1.15.51-1.92l1.33.77c-.29.58-.33.99-.33,1.41,0,.47.03.9.04,1.43,1.06.34,2.16.88,3.15,1.47l-.72,1.3c-.78-.55-1.58-1.02-2.35-1.35v.24c0,1.4-1,2.25-2.58,2.25-1.39,0-2.8-.71-2.8-2.26ZM160.91,98.5c.69,0,1.11-.31,1.11-.94,0-.12,0-.29-.01-.48-.34-.09-.69-.13-1-.13-.79,0-1.33.29-1.33.76,0,.53.55.79,1.25.79ZM163.18,91.28l.67-1.2c1.37.52,2.46,1.14,3.48,2.13l-.82,1.18c-1.16-1.07-2.04-1.59-3.33-2.12Z"/>
        <path d="M168.79,95.54c.76-.9,1.04-1.95,1.04-4v-2.77h6.22c-.08-.58-.13-1.23-.13-1.68h1.39l.12,1.63h1.8c-.33-.39-.72-.78-1.12-1.11l1.16-.63c.43.32.9.77,1.32,1.23l-.92.51h1.91v1.14h-3.97c.12.96.45,1.91.87,2.64.46-.69.82-1.36,1.17-2.22l1.14.66c-.41.95-.9,1.82-1.53,2.67.42.48.9.87,1.1.87.21,0,.38-.48.51-1.62l1.14.71c-.25,1.75-.64,2.52-1.27,2.52-.56,0-1.47-.57-2.33-1.41-.46.52-1.08,1.08-1.68,1.51l-.96-.96c.64-.41,1.26-.93,1.83-1.58-.6-.87-1-2.02-1.35-3.75h-5.01v1.49c0,2.61-.34,3.99-1.27,5.16l-1.16-1ZM168.92,99.23c.69-.77,1.23-1.7,1.62-2.78l1.25.45c-.41,1.38-.96,2.43-1.67,3.24l-1.2-.92ZM171.58,90.58h4.53v.98h-4.53v-.98ZM171.86,92.18h4.02v2.82h-2.87v.57h-1.15v-3.39ZM172.94,99.86c-.24-.2-.38-.5-.38-.88v-2.76h1.44v2.01c0,.61.12.66,1.71.66,1.27,0,1.69-.08,1.84-.33.11-.14.13-.39.18-1.12l1.33.38c-.01.99-.17,1.68-.48,1.95-.34.3-1.08.41-2.91.41s-2.4-.06-2.75-.3ZM174.71,94.07v-.96h-1.7v.96h1.7ZM174.28,96.22l1.08-.77c.62.53,1.23,1.14,1.74,1.8l-1.14.9c-.42-.65-1.04-1.33-1.68-1.93ZM178.66,96.8l1.14-.69c.87.72,1.75,1.68,2.47,2.71l-1.28.92c-.73-1.21-1.54-2.22-2.34-2.94Z"/>
        <path d="M186.41,95.75c0-.84.03-2.65.06-3.78.03-.97.01-2.97-.01-4.28l1.72.03c-.03,1.29-.08,3.18-.12,4.12-.04,1-.08,2.75-.08,3.67,0,1.79.5,2.66,1.89,2.66,1.72,0,3.57-1.23,4.56-3.04l.83,1.63c-1.16,1.65-3.21,2.92-5.4,2.92-2.62,0-3.45-1.63-3.45-3.95ZM190.94,89.09l.96-.46c.51.79.86,1.54,1.23,2.49l-1,.5c-.35-.96-.75-1.77-1.19-2.52ZM192.64,88.6l.97-.46c.53.75.86,1.47,1.26,2.49l-1.02.46c-.39-1.05-.75-1.82-1.21-2.49Z"/>
        <path d="M199.37,97.39c0-1.28,1.11-2.22,3.15-2.22.36,0,.72.03,1.11.08-.02-.31-.04-.64-.06-.96-.09-1.36-.17-3.42-.17-4.41,0-.71-.01-1.5.02-2.48l1.6.08c-.09,1-.1,1.7-.12,2.66,1.23-.06,2.49-.21,3.72-.46l.17,1.5c-1.41.23-2.7.36-3.87.42.01.88.06,1.9.12,2.68.03.43.06.88.07,1.3,1.44.41,2.94,1.11,4.21,2.04l-.85,1.3c-1.19-.9-2.31-1.5-3.29-1.88v.29c0,1.58-.94,2.37-2.8,2.37s-3.01-.86-3.01-2.31ZM202.25,98.27c.84,0,1.44-.29,1.44-1.19,0-.1,0-.25-.01-.46-.41-.08-.79-.1-1.12-.1-1.09,0-1.65.38-1.65.88,0,.58.57.87,1.35.87Z"/>
        <path d="M217.58,98.24c0-.66.49-1.23,1.21-1.23s1.21.57,1.21,1.23-.5,1.21-1.21,1.21-1.21-.55-1.21-1.21ZM217.91,88.55h1.76l-.09,7.33h-1.56l-.11-7.33Z"/>
      </g>
      <circle class="cls-10" cx="305.91" cy="101" r="30"/>
      <g>
        <path class="cls-8" d="M39.63,19.18c5.99-4.82,10.66-4.4,11.63-2.77.89,1.5-.2,9.39-9.12,4.98"/>
        <path class="cls-5" d="M43.87,21.76c2.15-3.7,6.52-2.97,7.65-2.44-1.95,3.62-3.96,4.96-7.65,2.44Z"/>
        <path class="cls-1" d="M46.86,23.33c-1.31,0-2.95-.38-4.99-1.39-.3-.15-.43-.52-.28-.82.15-.3.52-.42.82-.28,3.32,1.64,5.84,1.68,7.3.12,1.3-1.4,1.35-3.69,1.02-4.24-.21-.35-.72-.62-1.4-.75-.91-.17-4.28-.39-9.33,3.68-.26.21-.65.17-.86-.09-.21-.26-.17-.65.09-.86,3.68-2.96,7.54-4.43,10.31-3.93,1.04.19,1.83.66,2.23,1.32.64,1.09.43,3.95-1.18,5.69-.75.81-1.93,1.54-3.74,1.54Z"/>
        <path class="cls-8" d="M45.12,33.41c1.64-16.83-17.12-22.81-25.65-13.47-2.98,3.26-5.19,9.03-4.06,15.78-3.29,3.25-2.73,7.92,2.42,10.47,3.1,1.53,6.2,2.2,13.34,2.2,6.63,0,14.3-2.8,16.45-6.94,1.2-2.31.78-5.73-2.5-8.03Z"/>
        <path class="cls-2" d="M34.89,15.77c-.6-4.19-4.15-6.53-4.34-.47"/>
        <path class="cls-2" d="M23.2,16.84c-.51-4.21,2.31-7.38,4.07-1.58"/>
        <path class="cls-8" d="M18.74,19.9c-6.66-3.83-11.22-2.69-11.92-.92-.65,1.62,2.36,9.82,10.47,4.08"/>
        <path class="cls-5" d="M15.47,23.71c-2.15-3.7-7.04-2.78-8.16-2.25,1.95,3.62,4.48,4.77,8.16,2.25Z"/>
        <path class="cls-5" d="M28.3,15.29c1.23,7.47-2.33,14.46-12.54,14.46,0-11.43,12.54-14.46,12.54-14.46Z"/>
        <path class="cls-5" d="M30.55,15.3c0,8.41,6.81,12.73,13.85,13.26,0-11.43-13.85-13.26-13.85-13.26Z"/>
        <path class="cls-5" d="M14.32,42.18c13.82-6.39,25.47-3.61,33.3-.74-3.13,7.58-29.27,10.16-33.3.74Z"/>
        <path class="cls-1" d="M31.16,48.99c-7.6,0-10.65-.79-13.61-2.26-2.69-1.33-4.37-3.31-4.74-5.59-.32-1.98.37-3.97,1.94-5.63-1.1-7.14,1.47-12.92,4.26-15.98,4.25-4.65,11.26-5.93,17.43-3.18,3.01,1.34,5.47,3.51,7.11,6.28,1.79,3.02,2.53,6.55,2.2,10.5,3.38,2.57,3.64,6.23,2.4,8.6-2.36,4.55-10.5,7.26-17,7.26ZM29.78,16.13c-3.76,0-7.35,1.46-9.87,4.22-2.64,2.89-5.06,8.42-3.91,15.27.03.2-.03.39-.17.53-1.44,1.42-2.08,3.13-1.81,4.8.3,1.88,1.75,3.55,4.07,4.69,2.8,1.38,5.72,2.13,13.07,2.13,6.88,0,14.02-2.96,15.91-6.61,1.03-1.99.75-5.1-2.31-7.25-.18-.13-.28-.34-.26-.56.71-7.25-2.5-13.19-8.57-15.9-2.01-.89-4.11-1.33-6.16-1.33Z"/>
        <path class="cls-1" d="M12.09,25.69c-1.46,0-2.58-.54-3.4-1.18-2.09-1.64-2.9-4.58-2.44-5.76.29-.72.99-1.31,1.99-1.65,2.66-.93,6.7-.08,10.8,2.27.29.17.39.54.23.83-.17.29-.54.39-.83.23-5.62-3.23-8.91-2.49-9.79-2.18-.65.23-1.11.57-1.26.95-.21.53.31,2.97,2.06,4.35,1.89,1.49,4.48,1.14,7.5-.99.27-.19.65-.13.85.15.19.27.13.66-.15.85-2.23,1.58-4.07,2.14-5.56,2.14Z"/>
        <path class="cls-1" d="M34.89,16.38c-.3,0-.56-.22-.6-.52-.32-2.23-1.49-3.66-2.13-3.63-.31.02-.93.69-1,3.09-.01.34-.3.6-.63.59-.34-.01-.6-.29-.59-.63.11-3.62,1.4-4.23,2.15-4.27.03,0,.06,0,.09,0,1.46,0,2.94,2.06,3.31,4.67.05.33-.18.64-.52.69-.03,0-.06,0-.09,0Z"/>
        <path class="cls-1" d="M23.2,17.45c-.3,0-.57-.23-.6-.54-.32-2.67.61-5.08,2.07-5.39.74-.15,2.14.1,3.19,3.56.1.32-.08.66-.41.76-.32.1-.66-.08-.76-.41-.7-2.3-1.46-2.79-1.77-2.72-.62.13-1.38,1.81-1.11,4.05.04.33-.2.64-.53.68-.02,0-.05,0-.07,0Z"/>
        <path class="cls-1" d="M36.13,27.29c-.65-1.09-1.64-1.26-2.42-.7-.18.13-.11.42.12.44.71.07,1.33.3,1.99.61.22.1.44-.14.31-.35Z"/>
        <path class="cls-1" d="M25.16,27.49c.65-1.09,1.64-1.26,2.42-.7.18.13.11.42-.12.44-.71.07-1.33.3-1.99.61-.22.1-.44-.14-.31-.35Z"/>
        <circle class="cls-1" cx="32.01" cy="41.3" r=".57"/>
        <circle class="cls-1" cx="30.23" cy="41.3" r=".57"/>
        <path class="cls-1" d="M28.53,37.04c-.08,0-.16-.02-.24-.06l-2.97-1.77c-.22-.13-.29-.41-.16-.63.13-.22.41-.29.63-.16l2.97,1.77c.22.13.29.41.16.63-.09.15-.24.23-.4.23Z"/>
        <path class="cls-1" d="M25.7,37.23c-.14,0-.27-.06-.36-.17-.16-.2-.13-.49.07-.65l2.7-2.16c.2-.16.49-.13.65.07.16.2.13.49-.07.65l-2.7,2.16c-.09.07-.19.1-.29.1Z"/>
        <path class="cls-1" d="M36.24,37.26c-.1,0-.21-.03-.29-.11l-2.66-2.21c-.2-.16-.22-.45-.06-.65.16-.2.45-.22.65-.06l2.66,2.21c.2.16.22.45.06.65-.09.11-.22.17-.36.17Z"/>
        <path class="cls-1" d="M33.41,37.01c-.16,0-.32-.08-.4-.23-.13-.22-.05-.5.17-.63l3-1.72c.22-.13.5-.05.63.17.13.22.05.5-.17.63l-3,1.72c-.07.04-.15.06-.23.06Z"/>
        <ellipse class="cls-3" cx="30.23" cy="44.39" rx="1.19" ry="1.28" transform="translate(-17.72 68.59) rotate(-82.53)"/>
        <path class="cls-1" d="M30.26,46.01c-.08,0-.16,0-.24-.02-.94-.12-1.61-.94-1.49-1.83.12-.88.97-1.5,1.91-1.38h0c.94.12,1.61.94,1.49,1.83-.11.81-.83,1.4-1.67,1.4ZM30.2,43.64c-.41,0-.77.27-.82.64-.05.41.28.8.75.86.47.06.89-.22.94-.64.05-.41-.28-.8-.75-.86-.04,0-.08,0-.13,0Z"/>
      </g>
      <g>
        <path class="cls-1" d="M323.48,93.58c1.81.14,1.23,2.13.34,3.29-.19.24-.54.27-.77.08-1.57-1.34-1.02-3.48.43-3.36Z"/>
        <path class="cls-1" d="M323.38,94.37c-.31,0-.57-.25-.57-.57v-3.57l-.9-1.25c-.18-.25-.12-.61.13-.79.25-.18.61-.12.79.13l1,1.4c.07.1.11.21.11.33v3.75c0,.31-.25.57-.57.57Z"/>
        <polygon class="cls-6" points="320.54 84.64 314.41 84.07 317.14 89.58 323.38 90.24 320.54 84.64"/>
        <rect class="cls-6" x="313.83" y="87.74" width="6.67" height="2.9" transform="translate(124.26 -177.9) rotate(38.45)"/>
        <path class="cls-1" d="M318.9,93.43c-.12,0-.25-.04-.35-.12-.25-.19-.29-.55-.09-.8l2.25-2.85c.12-.15.31-.23.51-.21l1.19.13-2.23-4.39-4.8-.45.7,1.41c.1.19.07.42-.06.59l-1.81,2.4c-.19.25-.54.3-.79.11-.25-.19-.3-.54-.11-.79l1.6-2.12-.99-2.01c-.09-.18-.08-.4.04-.57.12-.17.31-.27.52-.24l6.12.57c.19.02.37.13.45.31l2.84,5.6c.09.19.08.41-.04.58-.12.17-.32.26-.53.24l-1.92-.2-2.06,2.61c-.11.14-.28.22-.45.22Z"/>
        <path class="cls-7" d="M314.86,116.38l4.18-1.62,2.02-5.47-.29-8.15-2.24-7.54-3.74-4.67-5.59-1.9-5.52-.3-7.14,3.84-3.23,5.74-3.98,4.71-1.8,4.98,1.36,4.52,9.81,4.92c2.84,1.15,12.97,1.45,16.17.94Z"/>
        <path class="cls-13" d="M287.95,102.73c4.88.32,7.71,5.48,5.9,11.02-4.77-2.59-7.43-5.23-5.9-11.02Z"/>
        <path class="cls-13" d="M321.13,106.48c-5.64-.78-9.96,4.07-9.08,10.38,5.99-1.67,9.58-3.87,9.08-10.38Z"/>
        <path class="cls-1" d="M299.43,95.63c1.6-.65,3.04-.03,3.72,1.21.16.29-.14.55-.45.39-1.01-.51-1.99-.76-3.07-.96-.36-.07-.49-.51-.19-.64Z"/>
        <path class="cls-1" d="M312.14,98.06c-1.18-1.26-2.75-1.29-3.88-.44-.27.2-.1.55.25.54,1.13-.04,2.13.14,3.2.4.36.09.66-.26.44-.5Z"/>
        <path class="cls-1" d="M308.14,107.1c-.14,0-.27-.05-.39-.14-.25-.21-.29-.59-.07-.85.68-.81,1.51-1.23,2.34-1.19.75.04,1.43.46,1.93,1.18.19.27.12.65-.15.84-.27.19-.65.12-.84-.15-.2-.29-.53-.64-1-.66-.44-.02-.92.25-1.36.77-.12.14-.29.21-.46.21Z"/>
        <path class="cls-1" d="M300.69,105.84c-.19,0-.37-.09-.49-.25-.37-.52-.72-.8-1-.81,0,0,0,0-.02,0-.33,0-.68.34-.92.64-.21.26-.59.29-.85.08-.26-.21-.29-.59-.08-.85.6-.74,1.23-1.1,1.9-1.08.7.02,1.33.45,1.94,1.31.19.27.13.65-.14.84-.11.08-.23.11-.35.11Z"/>
        <path class="cls-1" d="M310.91,117.43c-.31,0-.56-.25-.57-.56,0-.31.24-.57.56-.58,3.72-.08,6.39-.95,7.93-2.58,1.98-2.1,1.87-5.19,1.79-7.45l-.02-.46c-.13-4.27-1.4-18.26-12.21-18.99-9.16-.62-12.59,5.21-14.85,9.07-.46.78-.86,1.46-1.24,1.98-.11.15-.23.31-.37.48-1.58,2.06-4.51,5.88-3.4,9.55.8,2.64,3.61,4.79,8.34,6.41,1.43.49,2.87.87,4.3,1.14.31.06.51.35.45.66s-.36.51-.66.45c-1.48-.28-2.97-.67-4.45-1.18-5.1-1.74-8.15-4.15-9.07-7.16-1.28-4.23,2.01-8.51,3.59-10.57.13-.17.25-.33.36-.47.35-.47.73-1.12,1.17-1.87,2.26-3.85,6.04-10.29,15.91-9.63,5.1.34,8.83,3.35,11.1,8.93,1.72,4.24,2.1,8.81,2.17,11.16l.02.46c.09,2.46.21,5.83-2.1,8.27-1.78,1.89-4.64,2.85-8.73,2.94,0,0,0,0-.01,0Z"/>
        <path class="cls-1" d="M299.03,104.54c-.06,0-.12-.02-.18-.06-.75-.6-1.14-1.21-1.43-2.27-.04-.15.05-.31.2-.35.15-.04.31.05.35.2.29,1.07.66,1.52,1.23,1.97.12.1.14.28.05.4-.06.07-.14.11-.22.11Z"/>
        <path class="cls-1" d="M311.02,106.07c-.14,0-.26-.1-.28-.25-.02-.16.09-.3.24-.32.67-.09,1.43-.66,1.87-1.39.08-.13.25-.18.39-.1.13.08.18.25.1.39-.52.88-1.44,1.55-2.28,1.67-.01,0-.03,0-.04,0Z"/>
        <path class="cls-1" d="M312.36,106.6c-.37,0-.75-.07-1.12-.24-.14-.07-.21-.23-.14-.38.07-.14.23-.2.38-.14.86.39,1.83.09,2.49-.24.14-.07.31-.01.38.13.07.14.01.31-.13.38-.5.25-1.16.48-1.86.48Z"/>
        <path class="cls-1" d="M298.16,104.54c-.8,0-1.66-.46-2.34-1.26-.1-.12-.09-.3.03-.4.12-.1.3-.09.4.03.62.73,1.4,1.13,2.07,1.05.16-.02.3.09.31.25.02.16-.09.3-.25.31-.07,0-.15.01-.22.01Z"/>
        <g>
          <path class="cls-4" d="M308.33,110.26c-.67-1.83-3.64-3.8-5.16-3.59-1.51.21-4.7,2.06-5.7,2-.99-.06-1.68-.73-1.8,1.59-.12,2.32,1.7,3.51,4.13,2.66,3.37,1.92,9.68.49,8.53-2.66Z"/>
          <path class="cls-4" d="M308.33,112.64c-.75,3.68-4.93,5.84-6.2,5.3-1.26-.54-2.85-1.42-1.47-4.62,2.5.53,6.91-.12,7.03-1.63s.63.96.63.96Z"/>
          <path class="cls-11" d="M301.91,113.64c-.73,1.35-.38,3.07,1.83,1.99,2.21-1.08,2.21-2.29,2.21-2.29,0,0,1.45-.73-.48,0-1.94.73-3.55.3-3.55.3Z"/>
          <path class="cls-1" d="M303.41,114.36c-1.06,0-2.19-.33-3.37-.99-2.29.66-3.56.04-4.23-.6-.84-.81-1.16-2.1-.83-3.37.34-1.28.9-1.38,1.8-1.41.65-.02,1.63-.04,3.22-.88,3.52-1.85,5.58-.79,7.59,1.38.19.2.18.52-.03.7-.2.19-.52.18-.7-.03-1.79-1.93-3.42-2.74-6.4-1.17-1.8.95-2.92.97-3.66.99-.69.02-.69.03-.86.67-.24.91-.02,1.85.55,2.4.71.68,1.91.79,3.46.3.13-.04.28-.02.4.05,1.93,1.13,4.69,1.81,6.88-1.38.13-.19.38-.27.6-.18,0,0,.72.29,1.36.43.27.06.44.32.38.59-.06.27-.33.44-.59.38-.42-.09-.85-.24-1.15-.34-1.22,1.63-2.73,2.45-4.41,2.45Z"/>
          <path class="cls-1" d="M302.71,118.49c-.6,0-1.18-.14-1.7-.42-.85-.46-1.39-1.1-1.6-1.92-.43-1.62.6-3.29.65-3.36.15-.23.45-.3.68-.16.23.15.3.45.16.68,0,.01-.85,1.39-.53,2.59.15.55.51.97,1.11,1.3.86.46,1.92.39,3-.19,1.51-.82,3.14-2.8,3.35-5.36.02-.27.26-.48.54-.45.27.02.48.26.45.54-.21,2.58-1.73,4.99-3.86,6.15-.76.41-1.52.62-2.25.62Z"/>
        </g>
      </g>
    </g>
  </g>
</svg>