<?xml version="1.0" encoding="UTF-8"?>
<svg id="_レイヤー_2" data-name="レイヤー 2" xmlns="http://www.w3.org/2000/svg" width="374" height="77.36" viewBox="0 0 374 77.36">
  <defs>
    <style>
      .cls-1 {
        fill: #d4e9de;
      }

      .cls-2 {
        fill: #fff;
      }

      .cls-3 {
        fill: #739b9e;
      }
    </style>
  </defs>
  <g id="_レイヤー_1-2" data-name="レイヤー 1">
    <g>
      <rect class="cls-1" x="0" y="0" width="374" height="77.36"/>
      <rect class="cls-2" x="7.58" y="14.39" width="358.85" height="51.32" rx="25.57" ry="25.57"/>
      <g>
        <path class="cls-3" d="M118.26,36.93c.28-.57.47-1.11.59-1.71l1.63.16c-.23.61-.42,1.04-.66,1.55h3c.76,0,1.16-.01,1.61-.05-.05.43-.07.77-.07,1.58v7.27c0,.76.01,1.08.08,1.49h-1.5v-.65h-6.39v.65h-1.47c.05-.32.08-.88.08-1.5v-7.25c0-.76-.01-1.15-.07-1.58.43.04.84.05,1.58.05h1.58ZM116.57,39.72h6.39v-1.46h-6.39v1.46ZM116.57,42.43h6.39v-1.47h-6.39v1.47ZM116.57,45.25h6.39v-1.57h-6.39v1.57Z"/>
        <path class="cls-3" d="M131.11,41.11c-.43,0-.76.01-1.09.07v-.93c-.61.63-.95.93-1.62,1.44-.22-.43-.54-.84-1-1.27,1.61-1.12,2.59-2.19,3.42-3.73.31-.57.45-.92.51-1.31l1.55.57c-.13.2-.2.32-.35.66-.47,1.01-1.24,2.19-2.08,3.15.34.03.41.03.67.03h4.75c.32,0,.5,0,.81-.01-.9-1.01-1.57-2.04-2.13-3.25-.05-.14-.18-.36-.27-.54l1.43-.57c.11.35.23.63.51,1.13.86,1.57,1.96,2.73,3.58,3.75-.53.62-.63.78-.99,1.4-.72-.54-1.05-.82-1.59-1.36-.01.18-.01.22-.01.45,0,2.69-.2,4.74-.54,5.42-.28.57-.76.76-1.86.76-.27,0-.53-.01-1.38-.05-.07-.57-.15-.89-.38-1.51.59.09,1.19.16,1.55.16.49,0,.63-.05.74-.24.2-.38.41-2.11.41-3.46v-.74h-2.48c-.11,1.38-.39,2.3-1.01,3.31-.72,1.2-1.77,2.09-3.29,2.86-.24-.47-.45-.76-.95-1.27.8-.3,1.34-.62,2-1.19.91-.78,1.49-1.8,1.7-2.96.04-.23.07-.36.09-.76h-.7Z"/>
        <path class="cls-3" d="M143.87,39.07c-.35.08-.47.12-.96.3-.18.07-.27.09-.35.09-.3,0-.57-.55-.81-1.72.86-.04,1.17-.08,2.67-.31,1.62-.24,3.67-.55,4.75-.69,1.22-.16,2.19-.32,2.7-.43.09-.03.13-.03.2-.03.18,0,.24.08.37.42.11.28.19.69.19.88,0,.16-.05.22-.24.22-.28,0-.54.03-.8.07-2.28.38-4.1,2.38-4.1,4.48,0,1.58,1.24,2.62,3.35,2.81.19.01.26.08.26.24,0,.34-.14.99-.26,1.28-.07.15-.18.22-.35.22s-.58-.08-1-.2c-2.3-.67-3.5-2.13-3.5-4.2,0-1.12.36-2.16,1.07-3.05.38-.49.7-.76,1.47-1.28-1.77.3-3.63.65-4.66.9ZM150.78,39.42c.19,0,1.34,1.28,1.34,1.49,0,.07-.08.15-.32.36-.26.22-.27.22-.38.26q-.07.03-.09.03c-.05,0-.07-.01-.31-.39-.22-.34-.45-.63-.88-1.08-.03-.03-.07-.09-.07-.11.03-.07.04-.11.05-.11.04-.05.27-.24.32-.28.13-.07.22-.12.23-.14.01-.03.04-.03.04-.03h.07ZM153.09,40.35c-.2.15-.32.23-.39.23-.05,0-.08-.03-.15-.13-.41-.61-.61-.86-1.04-1.28-.03-.04-.05-.08-.05-.11,0-.07.08-.15.27-.28.19-.13.35-.22.42-.22.09,0,.26.12.54.4.39.41.76.9.76,1.03,0,.08-.09.18-.35.36Z"/>
        <path class="cls-3" d="M158.26,44.5c.39.7.81,1,1.62,1.15-.16-.26-.49-.59-.85-.89.92-.3,1.44-.57,1.97-1.01h-1.47c-.49,0-.73.01-1.01.05v-1.16c.3.04.5.05,1,.05h.99v-.81h-.28c-.65,0-.88.01-1.22.05v-1.15c.32.04.54.05,1.22.05h.27c-.01-.32-.01-.45-.05-.66h1.45c-.04.22-.05.35-.07.66h1.74c0-.31-.01-.42-.05-.66h1.43c-.04.22-.05.35-.07.66h.69c.66,0,.88-.01,1.2-.05v1.15c-.34-.04-.57-.05-1.22-.05h-.67v.81h1c.69,0,.92-.01,1.24-.05v1.16c-.35-.04-.58-.05-1.24-.05h-1.39c.69.43,1.3.66,2.42.9-.32.34-.54.62-.76.99q.26-.01,1.32-.15c-.23.61-.27.77-.38,1.49-1.23.05-2.78.08-4.46.08-2.04,0-2.79-.05-3.43-.27-.66-.22-1.15-.57-1.61-1.19-.53.51-.74.7-1.26,1.09-.27.2-.36.28-.58.46l-.63-1.47c.51-.22,1.01-.57,1.78-1.26v-2.8h-.66c-.36,0-.54.01-.88.07v-1.4c.35.05.57.07,1.04.07h.93c.45,0,.63-.01.97-.05-.04.38-.04.59-.04,1.4v2.79ZM156.46,35.54c.93.82,1.38,1.3,1.99,2.07l-1.08,1.05c-.67-.95-1-1.31-1.93-2.16l1.03-.96ZM162.39,37.54c0,.32.01.54.03.7-.27-.01-.53-.03-.82-.03h-1.67v.39c0,.28.04.3.62.3.96,0,.99-.01,1.01-.61.32.2.63.32,1.07.41-.08.73-.2.99-.55,1.11-.27.09-.66.12-1.77.12-1.3,0-1.55-.14-1.55-.84v-1.09c0-.36-.01-.49-.04-.77.26.03.43.03.9.03h1.55v-.53h-1.51c-.51,0-.74.01-1.05.04v-1.13c.3.04.68.05,1.07.05h1.62c.62,0,.88-.01,1.13-.04-.03.19-.03.3-.03.72v1.18ZM162.27,44.25c-.93.84-1.27,1.07-2.12,1.43.59.07,1.38.09,2.34.09.89,0,1.8-.03,3.17-.11-1-.35-1.7-.76-2.44-1.38l.78-.55h-2.54l.81.51ZM161.81,42.69h1.76v-.81h-1.76v.81ZM166.72,37.54c0,.32,0,.51.03.7-.28-.01-.53-.03-.82-.03h-1.65v.39c0,.26.08.3.7.3.95,0,.96-.01,1-.62.39.22.65.31,1.13.42-.15,1.15-.27,1.22-2.27,1.22-.89,0-1.19-.03-1.42-.12-.27-.12-.38-.34-.38-.73v-1.01q-.01-.53-.01-.55t-.03-.27c.26.03.43.03.91.03h1.54v-.53h-1.43c-.53,0-.74.01-1.07.04v-1.13c.3.04.67.05,1.08.05h1.57c.63,0,.89-.01,1.15-.04-.03.22-.03.3-.03.72v1.18Z"/>
        <path class="cls-3" d="M172.53,43.67c.04.05.05.09.05.15q0,.08-.23.7c-.28.82-.46,1.5-.51,2.03-.01.18-.07.24-.24.28-.19.05-.55.08-.9.08-.13,0-.2-.03-.24-.11-.12-.26-.34-1.19-.45-1.94-.09-.63-.14-1.3-.14-1.98,0-1.55.18-3.02.66-5.67.08-.43.11-.63.15-1.05.62.08,1.05.2,1.45.41.2.11.28.19.28.32,0,.07-.03.14-.09.24-.55.95-1.07,3.86-1.07,6.02,0,.32.01.84.05,1.49.32-.84.47-1.22.77-1.86.09.36.19.54.46.9ZM174.8,40.12c-.65,0-.78-.03-.82-.18-.04-.12-.08-.55-.08-.86,0-.11,0-.22.01-.46.36.03.58.04,1.03.04.73,0,1.19-.01,1.89-.05-.01-1.71-.03-1.93-.16-2.58.66.01,1.16.07,1.59.18.2.05.28.12.28.26,0,.07-.01.09-.05.2-.13.32-.2.85-.23,1.78.5-.07.93-.15,1.74-.34.07-.03.09-.03.13-.03.08,0,.12.04.15.13.03.12.07.63.07.92,0,.32-.01.39-.15.45-.22.09-.81.2-1.96.34,0,.93.08,2.47.18,3.35.85.36,1.43.68,2.03,1.09.38.28.46.36.46.47,0,.13-.24.59-.53.99-.16.23-.24.3-.34.3s-.09,0-.41-.3c-.3-.3-.61-.51-1.2-.92v.11c0,1.2-.99,1.97-2.49,1.97s-2.53-.81-2.53-2.03,1.03-2.12,2.39-2.12c.5,0,.76.01,1.12.07q-.05-1.05-.09-2.85c-.58.04-1.5.07-2.04.07ZM175.9,44.09c-.68,0-1.12.31-1.12.78,0,.43.42.7,1.07.7.72,0,1.09-.32,1.09-.93,0-.2-.01-.34-.01-.35-.35-.14-.66-.2-1.03-.2ZM179.51,37.08c-.19-.4-.31-.61-.73-1.17-.03-.04-.04-.07-.04-.09,0-.11.45-.42.61-.42.08,0,.18.09.45.43.34.45.72,1.07.72,1.2,0,.08-.04.13-.24.26-.2.15-.38.23-.46.23q-.09,0-.3-.43ZM180.24,34.98c.19-.11.31-.16.39-.16.09,0,.16.05.35.3.42.54.77,1.12.77,1.27,0,.08-.05.15-.27.27-.16.11-.35.2-.42.2-.05,0-.09-.04-.13-.14-.23-.51-.59-1.12-.85-1.42-.04-.04-.05-.08-.05-.11,0-.05.05-.12.22-.22Z"/>
        <path class="cls-3" d="M184.61,39.37c-.24.01-.39.03-.55.04-.12.01-.14.01-.15.01-.11,0-.16-.04-.2-.18-.07-.22-.16-.93-.18-1.34.15.01.54.03,1.03.03.15,0,1.22-.07,1.69-.11.23-1.09.31-1.66.31-2.39,1.39.19,1.89.35,1.89.61,0,.09-.01.12-.22.43-.11.16-.15.31-.38,1.15.63-.11,1.01-.2,1.51-.36.09-.03.13-.04.2-.04.09,0,.12.07.2.46.07.34.11.62.11.77,0,.16-.04.19-.39.27-.46.11-1.24.24-2.08.35-.5,1.51-.84,2.32-1.46,3.59-.47.95-.74,1.44-1.11,2.01-.11.16-.18.22-.27.22-.13,0-.51-.2-.99-.55-.22-.15-.27-.22-.27-.31s.05-.18.23-.42c.39-.49.91-1.32,1.35-2.21.38-.74.51-1.05.9-2.12-.53.04-.57.05-1.19.09ZM189.05,47.14c-1.47,0-2.47-.81-2.47-2.01s1.04-2.17,2.43-2.17c.32,0,.47.01,1.03.09-.05-.65-.05-.9-.11-2.16,0-.26-.03-.61-.05-1.04.69.07,1.22.15,1.47.26.11.04.16.11.16.22,0,.07-.01.12-.03.22-.07.28-.08.49-.08.85,0,.5.04,1.35.08,2.01.96.43,1.35.65,2.03,1.17.3.23.41.35.41.46,0,.13-.07.26-.45.86-.16.27-.28.39-.38.39q-.08,0-.46-.35c-.3-.3-.63-.53-1.11-.81,0,1.26-.92,2.01-2.47,2.01ZM189.02,44.25c-.65,0-1.09.31-1.09.78,0,.45.41.73,1.01.73.72,0,1.09-.36,1.09-1.08,0-.11,0-.22-.01-.22-.27-.13-.63-.22-1-.22ZM194.08,40.42c-.16.23-.24.3-.34.3-.07,0-.12-.03-.22-.12-.34-.32-.81-.68-1.31-.99q-.32-.2-.92-.47c-.19-.08-.26-.14-.26-.24,0-.09.07-.22.27-.53.32-.47.41-.55.53-.55.26,0,1.26.51,1.97,1,.58.39.76.55.76.7,0,.11-.22.51-.49.9Z"/>
        <path class="cls-3" d="M205.18,36.69c0,.12-.05.16-.28.3-.09.05-.22.16-.34.31-.84.97-2.04,2.28-3.11,3.36-.23.23-.32.41-.32.57,0,.15.11.31.36.54.8.73,2.09,2.05,3.05,3.15.68.76.85,1,.85,1.13,0,.15-.23.38-.78.81-.26.2-.42.3-.5.3-.12,0-.18-.05-.31-.27-.58-.92-2-2.63-3.08-3.73-.61-.61-.73-.74-.92-1.01-.23-.32-.32-.59-.32-.9,0-.27.08-.55.24-.82q.15-.24.97-1.12c.78-.81,1.62-1.84,2.15-2.59.35-.5.53-.82.7-1.28,1.05.58,1.63,1.03,1.63,1.27Z"/>
        <path class="cls-3" d="M213.05,39.07c-.35.08-.47.12-.96.3-.18.07-.27.09-.35.09-.3,0-.57-.55-.81-1.72.86-.04,1.17-.08,2.67-.31,1.62-.24,3.67-.55,4.75-.69,1.22-.16,2.19-.32,2.7-.43.09-.03.13-.03.2-.03.18,0,.24.08.37.42.11.28.19.69.19.88,0,.16-.05.22-.24.22-.28,0-.54.03-.8.07-2.28.38-4.1,2.38-4.1,4.48,0,1.58,1.24,2.62,3.35,2.81.19.01.26.08.26.24,0,.34-.14.99-.26,1.28-.07.15-.18.22-.35.22s-.58-.08-1-.2c-2.3-.67-3.5-2.13-3.5-4.2,0-1.12.36-2.16,1.07-3.05.38-.49.7-.76,1.47-1.28-1.77.3-3.63.65-4.66.9Z"/>
        <path class="cls-3" d="M228.28,39.64c-.96-.19-1.69-.47-2.19-.82-.24-.16-.3-.23-.3-.35,0-.15.11-.42.49-1.17.66.42,1.41.72,2.26.89.19-.95.27-1.73.28-2.61.69.12,1.3.32,1.63.51.15.08.2.16.19.27,0,.05-.03.11-.09.24-.2.42-.22.46-.5,1.78.14.01.31.01.42.01h.09c.32-.01.57-.01.69-.01h.04c.12,0,.16.05.16.23,0,.59-.04,1.08-.09,1.17-.04.07-.22.09-.78.09-.26,0-.46-.01-.84-.03q-.28,1.39-.4,2.12c.46.04.55.04.78.04h.76c.13-.01.2.01.24.08.05.08.09.51.09,1,0,.24-.01.31-.09.35-.07.03-.36.04-.88.04-.24,0-.61-.01-1.08-.04-.01.24-.01.41-.01.51,0,1.24.58,1.81,1.85,1.81,1.42,0,2.27-.69,2.27-1.85,0-.42-.09-.8-.31-1.22-.27-.51-.53-.81-1.18-1.32h.12c.22,0,.67-.07,1.08-.15.22-.04.3-.05.37-.05.2,0,.34.09.61.43.62.76.93,1.55.93,2.39,0,1.9-1.54,3.16-3.88,3.16-2.19,0-3.28-1.09-3.28-3.31,0-.19,0-.34.03-.57-1.34-.28-2.07-.94-2.07-1.9,0-.5.15-.86.53-1.24.04-.05.09-.07.15-.07.08,0,.18.07.49.32.24.2.28.24.28.31q0,.05-.08.18c-.05.09-.11.24-.11.32,0,.18.11.32.31.42.19.09.24.11.67.2l.35-2.19Z"/>
        <path class="cls-3" d="M240,36.66c0-.62-.01-.9-.08-1.32h1.55c-.07.4-.08.72-.08,1.31v1.07h.72c.28,0,.45-.01.65-.04v1.34c-.23-.03-.43-.04-.67-.04h-.69v1.97c.39-.14.58-.2,1.13-.42v1.27q-.76.3-1.13.43v3.77c0,.57-.2.95-.58,1.07-.27.09-.77.15-1.26.15-.23,0-.41-.01-.78-.04-.05-.57-.11-.82-.31-1.35.49.07.84.09,1.15.09s.39-.07.39-.39v-2.82q-1.19.38-1.43.49l-.28-1.44c.55-.07.63-.08,1.71-.38v-2.39h-.66c-.32,0-.55.01-.92.05v-1.38c.3.05.54.07.93.07h.65v-1.05ZM249.42,41.58q-.09.12-.34.53c-.68,1.12-1.17,1.78-1.89,2.47,1,.63,1.86.97,3.2,1.23-.35.43-.61.89-.81,1.4-1.59-.49-2.54-.93-3.54-1.67-1.05.77-2.15,1.27-3.65,1.7-.28-.58-.46-.88-.8-1.3,1.35-.28,2.2-.63,3.39-1.38-.76-.81-1.11-1.35-1.62-2.53-.24.01-.4.03-.62.05v-1.36c.28.05.59.07,1.04.07h4.09c.35,0,.59-.01.78-.05l.76.84ZM250.28,37.95c-.15,1.94-.3,2.11-2,2.11-.62,0-.93-.03-1.13-.09-.39-.14-.51-.36-.51-.97v-1.97h-1.57c-.05,1.9-.55,2.92-1.85,3.77-.31-.41-.57-.63-1.04-.97,1.17-.65,1.55-1.5,1.55-3.52,0-.2-.01-.36-.04-.65.24.03.55.04.85.04h2.67c.28,0,.57-.01.81-.04-.03.16-.04.46-.04.82v1.98c0,.2.01.26.11.28.05.03.22.04.35.04.19,0,.38-.03.43-.07.12-.09.16-.35.16-1.05v-.15c0-.09,0-.24-.01-.43.74.4.86.46,1.27.59v.28ZM244.81,42.04c.34.66.74,1.2,1.3,1.71.62-.53.93-.89,1.44-1.71h-2.74Z"/>
        <path class="cls-3" d="M257.39,37.31c-.38.41-.72.7-1.23,1.09-.3-.41-.53-.62-.88-.86,1.03-.68,1.8-1.55,2.08-2.32l1.36.24q-.09.14-.23.36c-.07.12-.16.26-.28.42h3.81c.55,0,.85-.01,1.08-.05l.77.61c-.11.14-.13.18-.23.32-.49.7-.66.93-1.2,1.46-.39-.22-.73-.35-1.2-.5.42-.28.57-.42.86-.77h-2c.41,1.28,1.76,1.99,4.09,2.11-.27.46-.39.74-.53,1.27-.54-.09-.74-.13-1.19-.24-.01.38-.01.73-.01,1.11v2.4q.01,1.15.05,1.38c-.28-.03-.82-.04-1.38-.04h-.61c1.04.49,1.92.7,3.59.86-.32.38-.47.61-.81,1.19-1.92-.32-2.85-.65-4.23-1.49l.76-.57h-3.55l.8.57c-1.35.82-2.21,1.13-4.11,1.49-.3-.54-.41-.69-.8-1.15,1.71-.2,2.58-.43,3.46-.9h-.53c-.61,0-1.07.01-1.38.04.03-.24.05-.77.05-1.3v-2.57c0-.59-.01-.96-.05-1.32.26.01.74.03,1.32.03h.68c-.15-.32-.3-.54-.54-.84-.69.32-.88.41-1.88.81-.19.08-.32.14-.55.26l-.51-1.34c.86-.16,2.01-.58,3.17-1.16l.39,1.13-.46.23c.9-.12,1.47-.26,1.96-.47.81-.36,1.2-.78,1.38-1.49h-1.31ZM254.63,37.73c-.74-.59-1.2-.88-2.05-1.27l.84-.99c.96.45,1.34.66,2.11,1.19l-.89,1.07ZM255.15,41.61h5.97v-.49h-5.97v.49ZM255.15,42.96h5.97v-.51h-5.97v.51ZM255.15,44.28h5.97v-.49h-5.97v.49ZM261.2,40.18h.45c-1.08-.39-1.7-.89-2.21-1.71-.34.55-.63.84-1.2,1.17-.41.24-.8.39-1.46.54h4.43Z"/>
        <path class="cls-3" d="M268.4,39.07c-.35.08-.47.12-.96.3-.17.07-.27.09-.35.09-.3,0-.57-.55-.81-1.72.86-.04,1.17-.08,2.67-.31,1.62-.24,3.67-.55,4.75-.69,1.21-.16,2.19-.32,2.7-.43.09-.03.14-.03.2-.03.17,0,.24.08.36.42.11.28.19.69.19.88,0,.16-.05.22-.24.22-.28,0-.54.03-.8.07-2.28.38-4.11,2.38-4.11,4.48,0,1.58,1.24,2.62,3.35,2.81.19.01.26.08.26.24,0,.34-.13.99-.26,1.28-.07.15-.17.22-.35.22s-.58-.08-1-.2c-2.3-.67-3.5-2.13-3.5-4.2,0-1.12.37-2.16,1.07-3.05.38-.49.7-.76,1.47-1.28-1.77.3-3.63.65-4.66.9ZM275.32,39.42c.19,0,1.34,1.28,1.34,1.49,0,.07-.08.15-.32.36-.26.22-.27.22-.38.26q-.07.03-.09.03c-.05,0-.07-.01-.31-.39-.22-.34-.45-.63-.88-1.08-.03-.03-.07-.09-.07-.11.03-.07.04-.11.05-.11.04-.05.27-.24.32-.28.14-.07.22-.12.23-.14.01-.03.04-.03.04-.03h.07ZM277.63,40.35c-.2.15-.32.23-.39.23-.05,0-.08-.03-.15-.13-.41-.61-.61-.86-1.04-1.28-.03-.04-.05-.08-.05-.11,0-.07.08-.15.27-.28.19-.13.35-.22.42-.22.09,0,.26.12.54.4.39.41.76.9.76,1.03,0,.08-.09.18-.35.36Z"/>
        <path class="cls-3" d="M285.08,38.54c-1.16.2-2.36.34-3.09.34-.22,0-.31-.04-.34-.16-.05-.2-.11-.61-.13-1.11,1.09,0,1.93-.07,3.13-.26q-.07-.2-.24-.7c-.12-.32-.23-.59-.38-.88.58-.12,1.11-.19,1.59-.19.12,0,.19.08.19.22v.19c0,.24.05.57.19,1.09,1.01-.23,1.88-.51,2.57-.81.11-.04.14-.05.18-.05.07,0,.11.07.23.35.12.31.24.66.24.73s-.03.09-.11.13c-.8.34-1.16.46-2.73.85.19.47.24.59.47,1.08.74-.2,1.11-.32,1.38-.46l1.27-.63s.04-.03.04-.03c.01,0,.04.01.05.01.05,0,.11.08.23.34.16.32.3.69.3.77q0,.09-.28.24c-.74.41-1.32.63-2.3.9.54.8,1.31,1.66,1.77,1.98.46.32.47.35.47.49,0,.12-.14.41-.39.85-.23.39-.34.5-.49.5-.08,0-.09,0-.3-.15-.69-.53-2.08-.89-3.42-.89-1.16,0-1.89.41-1.89,1.08,0,.42.32.76.91.97.53.19,1.69.31,2.94.31.3,0,.55-.01,1.08-.04-.24.35-.37.59-.53,1.16-.08.28-.18.34-.59.34-1.45,0-2.73-.16-3.59-.47-1.15-.41-1.76-1.16-1.76-2.17,0-1.44,1.19-2.32,3.16-2.32,1.21,0,1.98.14,2.84.51-.76-.72-1.16-1.2-1.55-1.84-.65.14-.97.19-1.4.26-.77.11-2.17.22-2.74.22-.43,0-.45-.01-.57-1.28.3.01.53.01.66.01.86,0,2.51-.18,3.42-.36-.16-.34-.34-.73-.49-1.12Z"/>
        <path class="cls-3" d="M301.05,40.11c1.9,0,3.25,1.3,3.25,3.13,0,1.26-.66,2.39-1.77,3.05-.77.46-1.72.69-2.78.69-1.71,0-2.71-.69-2.71-1.86,0-1.07.89-1.82,2.16-1.82,1.15,0,1.97.58,2.53,1.77.69-.5.97-1.03.97-1.76,0-1.16-.82-1.92-2.12-1.92s-2.74.66-3.92,1.84c-.22.22-.42.45-.66.76-.09.13-.16.19-.24.19-.24,0-1.2-.95-1.2-1.19,0-.12.05-.19.35-.41.31-.24.76-.63,1.32-1.17,1.31-1.24,2.27-2.28,3.69-4.01-1.69.22-2.82.41-3.24.55-.07.01-.11.03-.15.03-.11,0-.18-.07-.26-.27-.16-.4-.24-.85-.28-1.44.36.05.62.07.92.07.65,0,1.74-.09,3.16-.26.5-.05.66-.09,1.04-.24.12-.05.19-.07.27-.07.19,0,.38.16.73.7.26.35.34.53.34.63,0,.18-.04.23-.34.42-.24.15-.39.27-.7.57-.67.65-.69.65-1.53,1.5-.59.61-.66.67-1.2,1.22.88-.49,1.57-.69,2.38-.69ZM299.75,44.78c-.2-.13-.43-.2-.69-.2-.42,0-.69.2-.69.53,0,.39.42.63,1.07.63.3,0,.55-.03.89-.12-.16-.45-.3-.65-.58-.84Z"/>
        <path class="cls-3" d="M310.04,38.06c.31-.81.61-1.24,1.12-1.67.62-.51,1.36-.76,2.31-.76,2.03,0,3.32,1.11,3.32,2.84,0,.58-.16,1.13-.47,1.58-.24.35-.35.46-1.11,1.15-1.05.95-1.28,1.31-1.28,2.03v.72h-1.38v-.76c0-.61.12-1.15.36-1.58.19-.34.39-.57.93-1.11.57-.55.74-.76.89-1,.19-.27.3-.65.3-1.01,0-.9-.61-1.47-1.57-1.47s-1.53.5-1.93,1.67l-1.5-.62ZM314.35,45.93c0,.59-.47,1.07-1.07,1.07s-1.07-.47-1.07-1.07.47-1.07,1.07-1.07,1.07.47,1.07,1.07Z"/>
      </g>
      <g>
        <g>
          <path class="cls-3" d="M43.15,35.58c.02-1.97.63-3.49,1.83-4.55,1.13-1.05,2.47-1.58,4.03-1.58s2.98.53,4.1,1.58c1.15,1.06,1.74,2.58,1.78,4.56v9.42c-.04,1.96-.63,3.48-1.78,4.54-1.13,1.05-2.5,1.59-4.1,1.61-1.56-.02-2.91-.56-4.03-1.61-1.2-1.06-1.81-2.57-1.83-4.53v-9.44ZM51.94,35.77c-.06-2.14-1.03-3.23-2.92-3.27-1.9.04-2.87,1.13-2.91,3.27v9.07c.04,2.16,1.01,3.25,2.91,3.27,1.89-.02,2.87-1.11,2.92-3.27v-9.07Z"/>
          <path class="cls-3" d="M67.74,29.41s-.04.1-.14.31-.24.5-.42.86-.38.78-.62,1.25-.48.96-.74,1.48-.52,1.04-.79,1.57-.53,1.03-.78,1.51-.48.91-.68,1.3-.38.7-.51.94c.28-.17.6-.27.96-.3s.77-.04,1.24-.02c.67.02,1.26.14,1.76.35s.94.48,1.3.81.66.68.9,1.08.43.78.56,1.16.23.73.29,1.05.08.58.08.77v.84c0,.19,0,.38,0,.58s-.01.36-.02.5c0,.07-.04.25-.1.53s-.15.63-.29,1.03-.34.82-.61,1.27-.61.88-1.04,1.29-.95.75-1.57,1.05-1.35.47-2.2.54c-.89.08-1.67.02-2.36-.18s-1.27-.47-1.77-.83-.91-.78-1.25-1.25-.59-.96-.78-1.46-.32-.98-.38-1.44-.08-.85-.04-1.17c.06-.48.12-.91.19-1.28s.15-.73.24-1.08.2-.68.32-1.01.25-.69.41-1.08c.04-.1.15-.33.32-.7s.39-.82.65-1.35.55-1.13.87-1.77.64-1.3.97-1.96c.76-1.54,1.62-3.27,2.56-5.17h3.46ZM67.12,45.04c0-.37-.01-.78-.04-1.23s-.14-.88-.33-1.28-.5-.75-.93-1.05-1.04-.47-1.83-.53c-.37-.03-.71,0-1.01.12s-.57.25-.81.44-.44.4-.61.64-.31.48-.42.71-.19.45-.24.65-.07.35-.07.46c0,.24,0,.52.01.81s.04.6.09.89.14.59.27.86.31.52.54.74.53.39.9.53.82.21,1.37.21c.44,0,.82-.05,1.15-.17s.61-.28.83-.47.42-.4.56-.64.26-.46.34-.69.14-.43.17-.61.04-.31.04-.4Z"/>
        </g>
        <path class="cls-3" d="M33.72,42.84c-.76.79-1.8,1.41-3.01,1.81-.17-.32-.31-.52-.56-.82,1.2-.29,2.21-.79,2.94-1.47h-1.5c-.05.18-.06.22-.13.43l-1.01-.02c.24-.56.38-1.02.49-1.58.08-.39.14-.77.14-.95.17.02.4.03.82.03h1.78l-.02-.58h-1.93c-.34,0-.56,0-.8.04v-.83c-.1.08-.13.12-.26.23-.17-.29-.35-.5-.56-.69.74-.57,1.16-1.12,1.35-1.76l.93.17c-.11.23-.14.29-.25.47h1.11c.41,0,.64-.02.85-.04v.7c.34-.4.55-.78.7-1.3l.92.16q-.07.17-.22.49h1.65c.46,0,.67,0,.95-.05v.9c-.26-.04-.52-.05-.9-.05h-.68c.23.33.23.35.38.59l-.71.2h.41c.43,0,.59,0,.81-.03-.03.16-.04.3-.04.61v.91c0,.31,0,.45.04.63-.2-.02-.47-.03-.81-.03h-1.99v.57h2.47c.33,0,.52,0,.74-.03-.02.11-.02.17-.03.26t-.03.26s-.02.22-.05.55c-.09.86-.14,1.07-.31,1.27-.17.2-.43.26-1.02.26-.25,0-.43,0-.8-.03-.05-.36-.11-.56-.22-.85.33.04.74.08.95.08.47,0,.49-.05.55-1.01h-2.22l.02,1.45c0,.46.02.68.06.95h-1.02c.04-.25.05-.4.05-.75v-.22l-.02-.96ZM32.48,38.94c-.11-.29-.22-.5-.39-.8h-.48c-.21.29-.4.5-.68.77.21.03.38.04.79.04h.75ZM33.69,41.04h-1.77c-.03.19-.04.21-.12.57h1.9v-.57ZM34.18,38.94c-.13-.16-.31-.33-.56-.51.15-.12.2-.15.32-.27-.15,0-.32-.02-.49-.02h-.48c.11.17.17.26.34.58l-.71.22h1.58ZM36.01,38.94c-.1-.22-.26-.51-.44-.79h-.53c-.23.33-.42.55-.69.79h1.67ZM34.59,40.28h1.87v-.58h-1.88v.58Z"/>
        <path class="cls-3" d="M79.8,44.74v-.47h-5.38v.47h-1.01c.04-.28.05-.64.05-1.12v-5.46c0-.42-.02-.69-.05-1.04.32.04.59.05,1.02.05h5.36c.42,0,.7,0,1.02-.05-.04.32-.04.6-.04,1.04v5.47c0,.47.02.89.04,1.11h-1ZM74.42,43.42h5.38v-5.39h-5.38v5.39ZM78.02,39.01c.38,0,.6,0,.83-.03-.02.21-.03.41-.03.68v2.06c0,.29,0,.47.03.68-.26-.02-.47-.03-.83-.03h-1.85c-.43,0-.57,0-.84.03.03-.23.04-.42.04-.68v-2.06c0-.25,0-.45-.04-.68.22.02.46.03.84.03h1.85ZM76.29,41.58h1.63v-1.76h-1.63v1.76Z"/>
      </g>
      <rect class="cls-1" x="95.06" y="32.52" width="1.42" height="15.06"/>
    </g>
  </g>
</svg>